<svg width="63" height="10" viewBox="0 0 63 10" fill="none" xmlns="http://www.w3.org/2000/svg">
<rect width="1440" height="2258" transform="translate(-359 -881)" fill="white"/>
<path d="M5 0L6.12257 3.45492H9.75528L6.81636 5.59017L7.93893 9.04508L5 6.90983L2.06107 9.04508L3.18364 5.59017L0.244718 3.45492H3.87743L5 0Z" fill="#FF6B2C"/>
<path d="M18.5 0L19.7348 3.45492H23.7308L20.498 5.59017L21.7328 9.04508L18.5 6.90983L15.2672 9.04508L16.502 5.59017L13.2692 3.45492H17.2652L18.5 0Z" fill="#FF6B2C"/>
<path d="M31.5 0L32.7348 3.45492H36.7308L33.498 5.59017L34.7328 9.04508L31.5 6.90983L28.2672 9.04508L29.502 5.59017L26.2692 3.45492H30.2652L31.5 0Z" fill="#FF6B2C"/>
<path d="M44.5 0L45.7348 3.45492H49.7308L46.498 5.59017L47.7328 9.04508L44.5 6.90983L41.2672 9.04508L42.502 5.59017L39.2692 3.45492H43.2652L44.5 0Z" fill="#FF6B2C"/>
<path d="M58 0L59.1226 3.45492H62.7553L59.8164 5.59017L60.9389 9.04508L58 6.90983L55.0611 9.04508L56.1836 5.59017L53.2447 3.45492H56.8774L58 0Z" fill="#FF6B2C"/>
</svg>
