<svg width="127" height="31" viewBox="0 0 127 31" fill="none" xmlns="http://www.w3.org/2000/svg">
<g clip-path="url(#clip0_15_40)">
<path d="M0 6.54867H6.44537V24.8407H11.378V6.54867H17.8563V2.43677H0V6.54867Z" fill="#48D259"/>
<path d="M44.7064 2.43677L40.826 18.7659L36.995 2.43677H31.9801L28.1655 18.7659L24.2851 2.43677H18.9907L25.0415 24.8407H30.9771L34.4958 9.47607L38.0144 24.8407H43.9501L50.0008 2.43677H44.7064Z" fill="#48D259"/>
<path d="M59.8828 20.1196C60.5405 19.9843 61.2147 19.8827 61.9217 19.7812L62.2341 19.7304L55.9202 2.43677H52.9771L46.6304 24.8407H49.1625L54.5062 5.95642L59.6855 20.1535C59.6855 20.1535 59.8171 20.1366 59.8828 20.1196Z" fill="white"/>
<path d="M65.8676 19.4597L70.6851 2.43677H68.153L63.2861 19.6289C64.0918 19.5443 64.8317 19.4935 65.5223 19.4766C65.6374 19.4766 65.7525 19.4766 65.8511 19.4766L65.8676 19.4597Z" fill="white"/>
<path d="M74.6148 5.36409C75.7658 5.36409 76.4892 4.67032 76.6043 3.68888C76.6865 2.9951 76.2261 2.45361 75.3054 2.45361C74.138 2.45361 73.4474 3.18123 73.3487 4.12883C73.2665 4.82261 73.7269 5.36409 74.6148 5.36409Z" fill="white"/>
<path d="M71.6061 20.018C71.6061 20.018 71.6555 20.018 71.6719 20.018L74.8946 8.5791H72.3625L69.2549 19.5949C70.0606 19.6965 70.8662 19.8318 71.6226 20.001L71.6061 20.018Z" fill="white"/>
<path d="M74.73 21.0165C75.4699 21.3211 76.1769 21.6764 76.8675 22.0487L78.6926 15.5509C79.6134 12.2512 81.9317 10.3898 84.3816 10.3898C86.3382 10.3898 87.2919 11.4051 87.0781 13.3172C87.0288 13.6895 86.963 14.0618 86.8479 14.5017L83.9048 24.8238H86.4369L89.4787 14.0956C89.6267 13.6218 89.7089 13.1142 89.7582 12.7081C90.0871 9.78066 88.3935 8.27466 85.3353 8.27466C83.2307 8.27466 81.2083 9.34071 79.7778 11.2021L80.5341 8.59616H78.1171L74.6313 20.9657C74.6313 20.9657 74.6971 20.9826 74.73 20.9995V21.0165Z" fill="white"/>
<path d="M106.414 8.2915C102.008 8.2915 99.5251 10.2375 98.9167 13.5541H101.367C101.959 11.2866 103.553 10.1867 106.02 10.1867C108.157 10.1867 109.358 11.2189 109.16 12.9618C108.946 14.7893 107.763 15.2631 105.97 15.4154L102.106 15.7369C98.3905 16.0753 96.4175 17.6321 96.0722 20.7795C95.7598 23.5884 97.6507 25.1791 100.66 25.1791C103.389 25.1791 105.313 24.113 106.727 22.1501C106.579 22.6578 106.497 23.0977 106.464 23.47C106.414 23.9776 106.447 24.4684 106.645 24.8575H108.881C108.815 24.6376 108.798 24.2991 108.848 23.8253C108.93 23.0977 109.177 22.0655 109.571 20.7118L111.544 13.8248C111.61 13.5033 111.676 13.131 111.725 12.7926C112.054 9.86519 109.9 8.32535 106.447 8.32535L106.414 8.2915ZM107.763 18.0721C106.924 21.1179 104.655 23.3346 101.597 23.3346C99.5744 23.3346 98.4563 22.2347 98.6372 20.5257C98.8509 18.6305 100.018 17.5306 102.386 17.3445L105.477 17.0568C106.842 16.9383 107.779 16.6845 108.272 16.143L107.746 18.0552L107.763 18.0721Z" fill="white"/>
<path d="M121.919 8.2915C117.973 8.2915 115.063 10.0175 114.668 13.4864C114.389 15.9738 115.819 17.1076 118.138 17.446L120.637 17.8521C122.265 18.1059 123.07 18.732 122.922 20.1196C122.692 22.1332 120.999 23.3685 118.154 23.3685C115.458 23.3685 114.422 22.2347 114.685 19.8996H112.399C112.334 20.1534 112.284 20.4072 112.251 20.661C111.955 23.3008 113.633 25.1621 117.743 25.1621C122.429 25.1621 125.142 23.047 125.487 19.9673C125.783 17.3614 124.271 16.16 121.591 15.7538L119.075 15.3477C117.875 15.1616 117.102 14.6878 117.25 13.3002C117.513 10.9651 119.256 10.0852 121.525 10.0852C124.336 10.0852 124.797 11.405 124.583 13.3002H126.869C126.934 13.0464 126.951 12.7926 126.984 12.5726C127.329 9.52677 125.109 8.2915 121.936 8.2915H121.919Z" fill="white"/>
<path d="M95.7596 7.05622L97.6505 4.77183L100.232 3.53657L98.3904 2.28439L97.8478 0L95.9569 2.28439L93.3755 3.53657L95.217 4.77183L95.7596 7.05622Z" fill="white"/>
<path d="M94.2636 8.59619L89.0843 26.8544C88.6732 28.3265 87.9826 29.1218 86.8152 29.1218C85.9274 29.1218 85.0559 28.9188 84.2831 28.4788C81.8497 27.0574 79.63 24.8407 76.5717 23.1317C75.8811 22.7425 75.1412 22.3702 74.3356 22.0318C73.4312 21.6595 72.4447 21.338 71.376 21.0842C70.6196 20.915 69.8139 20.7796 68.9425 20.6781C67.8902 20.5596 66.7721 20.5258 65.5554 20.5596C64.7333 20.5765 63.8783 20.6442 62.974 20.7458C62.8589 20.7458 62.7273 20.7796 62.6122 20.7965C61.8066 20.898 60.9516 21.0334 60.0637 21.2026C59.258 21.3549 58.4359 21.5411 57.5645 21.761C58.2879 23.0132 59.6197 25.2807 59.6197 25.2807C59.6197 25.2807 60.2445 24.993 61.2968 24.6208L64.6675 23.6562C65.7691 23.4024 66.9694 23.2163 68.2355 23.1317C69.0576 23.0809 69.9126 23.0809 70.7676 23.1317C71.8035 23.1994 72.8393 23.3686 73.8587 23.6732C73.9574 23.707 74.0725 23.7239 74.1711 23.7747C74.8453 23.9777 75.4865 24.2823 76.1278 24.6377C77.772 25.5345 79.3504 26.8375 80.8796 28.005C77.1801 25.9745 71.8528 23.7408 62.6122 27.5651C63.3521 28.4788 64.6511 30.1202 64.6511 30.1202C64.6511 30.1202 70.5045 26.2621 76.1442 27.159C77.9035 27.4466 80.2383 28.8849 82.4745 29.9848C83.905 30.6955 85.4834 31.034 87.0783 31.034C88.2457 31.034 89.1829 30.6617 89.9393 29.951C90.6792 29.2403 91.2218 28.2081 91.5999 26.8882L96.7957 8.63003H94.2636V8.59619Z" fill="white"/>
</g>
<defs>
<clipPath id="clip0_15_40">
<rect width="127" height="31" fill="white"/>
</clipPath>
</defs>
</svg>
