<svg width="33" height="34" viewBox="0 0 33 34" fill="none" xmlns="http://www.w3.org/2000/svg">
<g clip-path="url(#clip0_15_168)">
<mask id="mask0_15_168" style="mask-type:luminance" maskUnits="userSpaceOnUse" x="0" y="0" width="33" height="34">
<path d="M33 0H0V34H33V0Z" fill="white"/>
</mask>
<g mask="url(#mask0_15_168)">
<path d="M22.4309 10.3027C22.0745 10.3027 21.7852 10.5995 21.7852 10.9665C21.7852 11.3333 22.0745 11.6306 22.4309 11.6306C22.7882 11.6306 23.0767 11.3333 23.0767 10.9665C23.0767 10.5995 22.7882 10.3027 22.4309 10.3027Z" fill="#2B2B2B"/>
<path d="M10.6971 22.3682C10.3399 22.3682 10.0513 22.6657 10.0513 23.0322C10.0513 23.3995 10.3399 23.6963 10.6971 23.6963C11.0535 23.6963 11.3429 23.3995 11.3429 23.0322C11.3429 22.6657 11.0535 22.3682 10.6971 22.3682Z" fill="#2B2B2B"/>
<path d="M32.2934 4.08535C32.0754 4.03321 31.8463 4.10091 31.6889 4.26433L29.0117 7.03913H27.7282L26.3152 5.53383V4.19559L28.9542 1.44155C29.1103 1.27864 29.1739 1.04441 29.1222 0.821581C29.0707 0.599017 28.9113 0.419512 28.7004 0.346361C28.0374 0.116533 27.3437 6.30076e-05 26.6381 6.30076e-05C24.5348 6.30076e-05 22.6239 1.00861 21.3953 2.76708C20.2455 4.41323 19.8911 6.43058 20.3989 8.36129L15.642 13.2528L7.71691 5.08481V3.48172C7.71691 3.24852 7.59784 3.03218 7.40334 2.91234L2.83714 0.0947438C2.58286 -0.0621929 2.25769 -0.0209484 2.04831 0.194613L0.221928 2.07241C0.01255 2.28797 -0.0275597 2.62233 0.124807 2.88381L2.86438 7.5792C2.98093 7.7792 3.19106 7.90137 3.41785 7.90163L4.97632 7.90215L12.9022 16.0701L8.16341 20.9429C6.28582 20.421 4.32296 20.786 2.72135 21.9691C1.01227 23.2316 0.0322266 25.1961 0.0322266 27.3589C0.0322266 28.0842 0.145493 28.7978 0.368997 29.4793C0.440388 29.6974 0.616719 29.8621 0.834674 29.914C1.05288 29.9662 1.28168 29.8985 1.43935 29.735L4.11636 26.9605H5.40694L6.87738 28.4725V29.7996L4.17917 32.5524C4.02025 32.7145 3.95441 32.9498 4.00511 33.1742C4.05557 33.3983 4.21575 33.5796 4.42791 33.653C5.0906 33.8828 5.78457 33.9993 6.4899 33.9993C8.59327 33.9993 10.5034 32.9913 11.7314 31.2338C12.882 29.5869 13.2369 27.5688 12.7294 25.6381L16.5353 21.7245L17.4071 22.6983L17.007 23.1095C16.7547 23.3689 16.7547 23.7893 17.007 24.0487C17.2592 24.3079 17.6679 24.3079 17.9204 24.0487L18.2827 23.6762L26.4626 32.8128C26.4686 32.8196 26.4749 32.826 26.4812 32.8325C27.9948 34.3889 30.447 34.3894 31.9614 32.8323C33.4714 31.2787 33.4714 28.7509 31.9614 27.1973C31.9548 27.1906 31.948 27.1841 31.9412 27.1776L23.0421 18.7824L23.4003 18.4141C23.6526 18.1549 23.6526 17.7344 23.4003 17.475C23.1481 17.2156 22.7394 17.2156 22.4869 17.475L22.0896 17.8838L21.1408 16.9884L24.9651 13.0559C25.5087 13.2053 26.0698 13.2811 26.6381 13.2811C30.1991 13.2811 33.0958 10.3021 33.0958 6.64069C33.0958 5.91515 32.9825 5.2018 32.759 4.5201C32.6876 4.30195 32.5113 4.13723 32.2934 4.08535ZM5.70133 6.76909C5.58024 6.64432 5.41602 6.58077 5.24448 6.58077L3.78388 6.58025L1.49182 2.64516L2.60505 1.50043L6.42532 3.85785V5.35978C6.42532 5.53565 6.49318 5.70426 6.61401 5.82877L14.7288 14.1921L13.8154 15.1311L5.70133 6.76909ZM22.1279 19.7225L31.0573 28.146C32.0547 29.1825 32.0517 30.8608 31.0479 31.8935C30.0419 32.928 28.4133 32.9311 27.4032 31.9026L19.1966 22.7362L22.1279 19.7225ZM21.1754 18.8237L18.321 21.7582L17.4492 20.7845L20.2266 17.9282L21.1754 18.8237ZM26.6381 11.9529C26.0733 11.9529 25.5178 11.8598 24.9876 11.6762C24.7552 11.596 24.4984 11.6577 24.3249 11.8359C21.0873 15.1651 14.1113 22.3383 11.5425 24.98C11.3689 25.1584 11.3086 25.4225 11.3871 25.6617C11.9239 27.3008 11.6671 29.0492 10.6823 30.459C9.7002 31.8647 8.17199 32.6712 6.4899 32.6712C6.30096 32.6712 6.11302 32.6605 5.92685 32.64L7.978 30.5472C8.10009 30.4227 8.16896 30.2531 8.16896 30.0759V28.1973C8.16896 28.0212 8.10085 27.8523 7.97976 27.7278L6.13093 25.8267C6.00984 25.7021 5.84562 25.6321 5.67434 25.6321H3.84745C3.67515 25.6321 3.51017 25.7029 3.38883 25.8285L1.35383 27.9377C1.33365 27.7462 1.32356 27.553 1.32356 27.3587C1.32356 25.6287 2.10759 24.0576 3.47486 23.0477C4.84565 22.035 6.54616 21.7707 8.14046 22.323C8.37279 22.4036 8.62959 22.3416 8.80315 22.1632C8.83872 22.1268 21.5765 9.02846 21.5856 9.01913C21.7591 8.84066 21.8192 8.57685 21.7409 8.33768C21.2039 6.69854 21.4602 4.9507 22.4443 3.5419C23.4271 2.13492 24.9555 1.32819 26.6379 1.32819C26.8326 1.32819 27.0261 1.33934 27.2178 1.36113L25.2093 3.45734C25.0902 3.58159 25.0236 3.74891 25.0236 3.92322V5.80179C25.0236 5.97403 25.0885 6.13927 25.2048 6.26301L26.989 8.16415C27.1106 8.29385 27.2784 8.367 27.4537 8.367H29.2806C29.4526 8.367 29.6176 8.29644 29.7389 8.17063L31.7739 6.06171C31.7941 6.25315 31.8042 6.4464 31.8042 6.64069C31.8042 9.56983 29.4867 11.9529 26.6381 11.9529Z" fill="#2B2B2B"/>
<path d="M20.1482 12.3752L12.0669 20.6851C11.8149 20.9442 11.8149 21.3647 12.0669 21.6241C12.3192 21.8835 12.7281 21.8835 12.9804 21.6241L21.0616 13.3142C21.3139 13.0551 21.3139 12.6346 21.0616 12.3752C20.8094 12.1158 20.4004 12.1158 20.1482 12.3752Z" fill="#2B2B2B"/>
<path d="M28.3086 30.0157C28.5609 30.2744 28.9698 30.2744 29.2221 30.0142C29.4738 29.7545 29.4731 29.334 29.2206 29.0752L23.3996 23.1087C23.1471 22.8498 22.7379 22.8506 22.4864 23.1103C22.2344 23.3702 22.2352 23.7904 22.4877 24.0493L28.3086 30.0157Z" fill="#2B2B2B"/>
</g>
</g>
<defs>
<clipPath id="clip0_15_168">
<rect width="33" height="34" fill="white"/>
</clipPath>
</defs>
</svg>
