<svg width="42" height="42" viewBox="0 0 42 42" fill="none" xmlns="http://www.w3.org/2000/svg">
<g clip-path="url(#clip0_0_47)">
<path d="M39.0507 18.3113C38.8899 13.73 37.0347 9.44597 33.7771 6.18835C30.3626 2.77322 25.8247 0.893066 20.9999 0.893066C11.2552 0.893066 3.29297 8.64929 2.94975 18.3113C1.46269 18.9721 0.421875 20.4605 0.421875 22.1903V26.956C0.421875 29.2962 2.32566 31.2007 4.6665 31.2007C6.18113 31.2007 7.41291 29.9689 7.41291 28.4543V20.6915C7.41291 19.2694 6.32222 18.1098 4.93556 17.972C5.44744 9.55425 12.4549 2.86182 20.9999 2.86182C25.2997 2.86182 29.3428 4.53788 32.3858 7.58091C35.1802 10.3752 36.8155 14.0174 37.0616 17.9726C35.6763 18.1118 34.5876 19.2707 34.5876 20.6915V28.4536C34.5876 29.8875 35.6953 31.0543 37.0984 31.1757V33.1373C37.0984 35.3462 35.3009 37.143 33.092 37.143H30.1251C29.9794 36.7269 29.751 36.3424 29.4307 36.0234C28.8697 35.4597 28.1215 35.1493 27.3248 35.1493H24.2667C23.8277 35.1493 23.4064 35.2425 23.0205 35.4223C21.9679 35.906 21.288 36.9678 21.288 38.1274C21.288 38.9241 21.5984 39.6722 22.1608 40.232C22.7232 40.7957 23.4713 41.1061 24.2667 41.1061H27.3248C28.5927 41.1061 29.7103 40.2864 30.127 39.1118H33.092C36.387 39.1118 39.0671 36.4316 39.0671 33.1373V30.8253C40.545 30.1605 41.5779 28.6774 41.5779 26.9547V22.189C41.5779 20.4605 40.5371 18.9721 39.0507 18.3113ZM5.4435 20.6915V28.4536C5.4435 28.8821 5.09503 29.2313 4.66584 29.2313C3.41109 29.2313 2.38997 28.2101 2.38997 26.9554V22.1897C2.38997 20.9343 3.41109 19.9138 4.66584 19.9138C5.09503 19.9138 5.4435 20.2629 5.4435 20.6915ZM28.3125 38.3387C28.2147 38.802 27.7987 39.1387 27.3242 39.1387H24.2661C23.997 39.1387 23.7443 39.0337 23.5514 38.8407C23.3611 38.6511 23.2561 38.3978 23.2561 38.1287C23.2561 37.7356 23.4864 37.3766 23.8474 37.2106C23.976 37.1502 24.1171 37.1194 24.2661 37.1194H27.3242C27.5933 37.1194 27.8459 37.2237 28.0382 37.4167C28.2285 37.6063 28.3335 37.8596 28.3335 38.1287C28.3342 38.2009 28.3263 38.2731 28.3125 38.3387ZM39.6092 26.9554C39.6092 28.2101 38.5881 29.2313 37.3333 29.2313C36.9048 29.2313 36.5557 28.8828 36.5557 28.4536V20.6915C36.5557 20.2629 36.9041 19.9138 37.3333 19.9138C38.5881 19.9138 39.6092 20.9349 39.6092 22.1897V26.9554Z" fill="#F9F9F9"/>
<path d="M27.374 27.2947C29.6742 27.2947 31.5452 25.4231 31.5452 23.1236V14.6245C31.5452 13.5128 31.1107 12.4654 30.3219 11.6766C29.5331 10.8878 28.4864 10.4534 27.374 10.4534H14.6257C12.3256 10.4534 10.4546 12.3243 10.4546 14.6245V23.1236C10.4546 25.4237 12.3256 27.2947 14.6257 27.2947H14.7038V29.4971C14.7038 30.3371 15.2045 31.0826 15.9789 31.3969C16.2289 31.4973 16.4888 31.5472 16.7461 31.5472C17.2822 31.5472 17.8046 31.3346 18.1872 30.9389L21.851 27.2947H27.374ZM20.7518 25.6121L16.7867 29.5555C16.769 29.5739 16.7559 29.5877 16.7185 29.5712C16.6732 29.5529 16.6732 29.5233 16.6732 29.4971V26.3103C16.6732 25.767 16.2329 25.326 15.6888 25.326H14.6264C13.4117 25.326 12.424 24.3377 12.424 23.1236V14.6245C12.424 13.4098 13.4117 12.4221 14.6264 12.4221H27.3747C27.9614 12.4221 28.5133 12.6518 28.9307 13.0685C29.348 13.4859 29.5771 14.0385 29.5771 14.6245V23.1236C29.5771 24.3383 28.5887 25.326 27.3747 25.326H21.4461C21.1856 25.326 20.9362 25.429 20.7518 25.6121Z" fill="#F9F9F9"/>
<path d="M16.2179 17.5789C15.4173 17.5789 14.7656 18.2312 14.7656 19.0311C14.7656 19.8311 15.4179 20.4834 16.2179 20.4834C17.0192 20.4834 17.6715 19.8311 17.6715 19.0311C17.6715 18.2312 17.0198 17.5789 16.2179 17.5789Z" fill="#F9F9F9"/>
<path d="M20.9992 17.5789C20.1985 17.5789 19.5469 18.2312 19.5469 19.0311C19.5469 19.8311 20.1992 20.4834 20.9992 20.4834C21.8011 20.4834 22.4528 19.8311 22.4528 19.0311C22.4528 18.2312 21.8011 17.5789 20.9992 17.5789Z" fill="#F9F9F9"/>
<path d="M25.7809 17.5789C24.9803 17.5789 24.3286 18.2312 24.3286 19.0311C24.3286 19.8311 24.9809 20.4834 25.7809 20.4834C26.5822 20.4834 27.2345 19.8311 27.2345 19.0311C27.2345 18.2312 26.5822 17.5789 25.7809 17.5789Z" fill="#F9F9F9"/>
</g>
<defs>
<clipPath id="clip0_0_47">
<rect width="42" height="42" fill="white"/>
</clipPath>
</defs>
</svg>
