<svg width="29" height="29" viewBox="0 0 29 29" fill="none" xmlns="http://www.w3.org/2000/svg">
<g clip-path="url(#clip0_0_62)">
<path d="M22.0479 19.184C21.1005 18.2487 19.9177 18.2487 18.9763 19.184C18.2581 19.8961 17.54 20.6082 16.834 21.3324C16.6409 21.5315 16.4779 21.5737 16.2426 21.441C15.7779 21.1875 15.2831 20.9824 14.8365 20.7048C12.7546 19.3952 11.0106 17.7116 9.4657 15.8167C8.6993 14.8753 8.01738 13.8675 7.54065 12.733C7.4441 12.5037 7.4622 12.3528 7.64927 12.1658C8.36739 11.4718 9.06741 10.7597 9.77346 10.0476C10.7571 9.05793 10.7571 7.89928 9.76743 6.90357C9.20621 6.33631 8.64499 5.78113 8.08377 5.21387C7.50444 4.63455 6.93115 4.04919 6.34579 3.4759C5.39836 2.5526 4.21557 2.5526 3.27417 3.48194C2.55001 4.19402 1.85603 4.92421 1.11981 5.62423C0.437894 6.26993 0.0939201 7.06047 0.0215046 7.98377C-0.0931533 9.48639 0.274959 10.9045 0.793937 12.2865C1.85603 15.1469 3.47331 17.6874 5.43456 20.0168C8.08377 23.1669 11.2459 25.6592 14.9451 27.4575C16.6107 28.2661 18.3366 28.8877 20.2134 28.9903C21.5048 29.0627 22.6272 28.7368 23.5264 27.7291C24.1419 27.0411 24.8359 26.4135 25.4876 25.7557C26.4532 24.7781 26.4592 23.5953 25.4997 22.6298C24.3531 21.4772 23.2005 20.3306 22.0479 19.184Z" fill="#F9F9F9"/>
<path d="M20.895 14.3745L23.1218 13.9943C22.7718 11.9485 21.8063 10.0959 20.3399 8.62345C18.789 7.07255 16.8277 6.09494 14.6673 5.79321L14.3535 8.03206C16.0251 8.26741 17.5458 9.02174 18.7467 10.2226C19.8812 11.3571 20.6235 12.7934 20.895 14.3745Z" fill="#F9F9F9"/>
<path d="M24.3772 4.69494C21.8065 2.12419 18.5538 0.500874 14.9632 0L14.6494 2.23885C17.7512 2.67334 20.5633 4.07941 22.7841 6.29412C24.8902 8.4002 26.2721 11.0615 26.773 13.9883L28.9998 13.6081C28.4144 10.2166 26.8152 7.13896 24.3772 4.69494Z" fill="#F9F9F9"/>
</g>
<defs>
<clipPath id="clip0_0_62">
<rect width="29" height="29" fill="white"/>
</clipPath>
</defs>
</svg>
