<svg width="34" height="34" viewBox="0 0 34 34" fill="none" xmlns="http://www.w3.org/2000/svg">
<path d="M2.98828 5.04688H31.0117C32.6628 5.04688 34 6.3924 34 8.03516V25.9648C34 27.6174 32.6529 28.9531 31.0117 28.9531H2.98828C1.35104 28.9531 0 27.623 0 25.9648V8.03516C0 6.39532 1.33191 5.04688 2.98828 5.04688ZM3.40677 7.03906C4.01731 7.64635 14.5242 18.0979 14.887 18.4587C15.4514 19.0232 16.2018 19.334 17 19.334C17.7982 19.334 18.5486 19.0231 19.1149 18.4569C19.3589 18.2142 29.7498 7.87804 30.5932 7.03906H3.40677ZM32.0078 25.5594V8.44189L23.399 17.0053L32.0078 25.5594ZM30.592 26.9609L21.9866 18.4103L20.5217 19.8674C19.581 20.8081 18.3303 21.3262 17 21.3262C15.6697 21.3262 14.419 20.8081 13.4801 19.8693L12.0134 18.4103L3.40804 26.9609H30.592ZM1.99219 25.5594L10.601 17.0053L1.99219 8.44189V25.5594Z" fill="#F9F9F9"/>
</svg>
